# xmcd
#
# Track frame offsets:
#	150
#	13955
#	29022
#	46107
#	58296
#	68388
#	85631
#	97110
#	104338
#	116335
#	127025
#	136093
#	144961
#	154227
#	165893
#	178597
#	192247
#	207202
#	216807
#	225785
#	232604
#	244105
#	253412
#	263873
#	274144
#	286801
#	298022
#	309313
#	319654
#	330767
#	343843
#
# Disc length: 4754 seconds
#
# Revision: 0
# Processed by: cddbd v1.5.2PL0 Copyright (c) Steve Scherf et al.
# Submitted via: audiograbber 1.83.01
#
DISCID=b212901f
DTITLE=Dick Curless - A Tombstone Every Mile - CD4
DYEAR=1996
DGENRE=Country
TTITLE0=A Tombstone Every Mile
TTITLE1=Heart Talk
TTITLE2=Streets Of Laredo
TTITLE3=King Of The Road
TTITLE4=Uncle Tom
TTITLE5=China Nights
TTITLE6=Six Times A Day
TTITLE7=Cupid´s Arrow
TTITLE8=Down By The Old River
TTITLE9=Teardrops In My Heart
TTITLE10=Nine Pound Hammer
TTITLE11=Sunny Side Of The Mountain
TTITLE12=´Tater Raisin´ Man
TTITLE13=The Friend That Makes It Four
TTITLE14=Mama´s Hands
TTITLE15=Mom And Dad´s Waltz
TTITLE16=Daddy And Home
TTITLE17=I´m Going Home
TTITLE18=Buckaroo
TTITLE19=Little Terry
TTITLE20=Please Don´t Make Me Go
TTITLE21=You, You, Only You (& Kay Adams)
TTITLE22=Third Rock From The Sun
TTITLE23=I'm In Love With A Capital U
TTITLE24=No Fool Like An Old Fool (& Kay Adams)
TTITLE25=Old Standby (& Kay Adams)
TTITLE26=Pickup Man
TTITLE27=I Can´t Stop (My Lovin´ You (& Kay Adams)
TTITLE28=So Help Me Girl
TTITLE29=Wild Blue Yonder
TTITLE30=Heart Talk (& Kay Adams)
EXTD=
EXTT0=
EXTT1=
EXTT2=
EXTT3=
EXTT4=
EXTT5=
EXTT6=
EXTT7=
EXTT8=
EXTT9=
EXTT10=
EXTT11=
EXTT12=
EXTT13=
EXTT14=
EXTT15=
EXTT16=
EXTT17=
EXTT18=
EXTT19=
EXTT20=
EXTT21=
EXTT22=
EXTT23=
EXTT24=
EXTT25=
EXTT26=
EXTT27=
EXTT28=
EXTT29=
EXTT30=
PLAYORDER=
